<?xml version="1.0" standalone="yes"?>
<svg xmlns="http://www.w3.org/2000/svg" width="885" height="313">
<path style="fill:#fffefe; stroke:none;" d="M0 0L0 101L1 101C1.49081 77.347 22.2477 57.7784 42 47.7562C78.2282 29.3741 124.476 30.3361 160 49.7701C179.232 60.2912 197.806 79.8381 198 103L199 103L228.2 54L243.326 30.5131L273 21L345 1L314 0L244 0L0 0z"/>
<path style="fill:#010101; stroke:none;" d="M199 103L198 103C197.932 78.5217 179.239 59.745 159 48.6952C120.245 27.5359 62.4999 28.9627 27 56.5139C-1.3369 78.5059 0 106.429 0 139C0 161.328 -0.261726 183.674 0.00385802 206C0.319913 232.569 18.0303 253.589 41 265.244C75.0713 282.531 123.035 284.051 157 265.413C179.161 253.252 197.997 234.74 198 208L199 208C204.549 225.537 218.023 243.001 227.15 259C231.001 265.75 234.693 276.149 240.61 281.272C244.305 284.472 251.376 285.527 256 286.859C266.698 289.939 277.315 293.299 288 296.424C305.49 301.54 326.773 312.418 345 312.87C352.182 313.047 360.153 309.373 367 307.421L409 295.421C420.88 292.034 439.717 290.296 449.79 283.146C455.885 278.82 459.807 268.323 463.6 262C473.172 246.047 486.603 229.472 493 212L494 212L494 251C494 254.731 492.577 262.302 495.028 265.397C496.891 267.75 501.383 266.999 504 267L529 267L615 267C621.786 267 640.012 270.237 645.397 265.972C649.355 262.837 647 248.67 647 244L647 178L646 178L646 266L495 266L495 191C495 183.375 492.296 169.209 497 163L497 162C494.411 158.583 494.411 154.417 497 151L497 150C492.296 143.791 495 129.625 495 122L495 48L646 48L646 131L647 131L647 47L494 47L494 103C483.978 86.6257 474.769 69.6893 465.281 53C461.641 46.5974 457.802 35.3511 451.671 31.0887C444.249 25.9279 431.618 24.6254 423 21.9753C405.694 16.6541 388.341 11.4828 371 6.28009C363.627 4.06812 354.798 -0.270935 347 0.212952C328.107 1.38528 307.201 10.9816 289 16.1404C275.895 19.8549 254.317 21.8393 243.326 29.8542C237.157 34.3527 233.267 44.5549 229.4 51C219.482 67.5296 205.624 84.9085 199 103z"/>
<path style="fill:#fffefe; stroke:none;" d="M351 0L351 1L422 21.9753L451.671 31.7029L465.281 54L493 103L494 103L494 47L647 47L647 131L622 133L622 144L647 142L647 149C638.494 150.075 626.47 149.78 620.653 157.185C607.227 174.276 633.456 186.052 647 177L647 242C647 247.436 649.475 261.318 645.397 265.397C640.247 270.546 619.074 267 612 267L526 267C519.413 267 500.437 270.23 495.603 265.397C492.593 262.386 494 254.88 494 251L494 212L493 212L464.2 260L449.79 282.487L420 292L349 312L349 313L885 313L885 211C867.353 223.693 853.214 246.53 839 263C834.154 268.615 828.731 277.59 821.999 280.972C810.423 286.789 788.629 281 776 281C758.301 281 740.629 281.297 723 280.09C717.803 279.734 710.992 281.347 706.09 279.397C697.804 276.1 689.457 260.033 684.13 253C676.509 242.94 668.798 232.923 661 223C656.982 217.887 650.939 212.187 648.728 206C645.883 198.041 647.067 183.119 649 175L650 175L650 180L665 180C665 163.526 671.778 132.507 648 132C648 123.565 645.95 112.046 648.564 104C650.52 97.9793 656.823 92.7013 660.87 88C669.767 77.6624 678.734 67.3815 687.579 57C693.609 49.922 702.194 34.9373 711.015 31.6034C716.371 29.5788 724.331 31 730 31C745.343 31 760.616 32 776 32C787.742 32 799.314 32.4489 811 32.9606C815.85 33.173 822.525 31.7047 826.961 34.0278C833.487 37.4463 838.521 47.2996 843 53C856.157 69.7428 868.501 92.5689 885 106L885 0L351 0z"/>
<path style="fill:#6f7733; stroke:none;" d="M243 30L243 133C249.946 131.198 268.714 129.488 272.972 123.487C274.848 120.843 274 116.07 274 113L290 113L290 120C303.21 115.776 316.662 112.224 330 108.421C334.543 107.126 342.931 106.479 346.397 103.146C350.787 98.924 348 82.7995 348 77L348 1L243 30z"/>
<path style="fill:#cf9c80; stroke:none;" d="M349 1L352 3L349 1z"/>
<path style="fill:#6f7733; stroke:none;" d="M349 3L349 104L418 124.424L451 132L450 135L452 121L452 91L452 49L450.972 32.5131L426 23.8588L373 7.8588L349 3z"/>
<path style="fill:#010101; stroke:none;" d="M706 35C718.26 28.8373 735.692 31.9991 749 32.9105C765.187 34.019 781.773 32.974 798 33C805.403 33.0119 821.727 31.5211 827.826 35.7423C833.527 39.6876 837.748 47.5892 842 53C855.157 69.7428 867.501 92.5689 884 106L884 107L860.579 133L831 168C851.41 153.503 867.528 126.858 884 108L884 176L883 212C885.945 208.112 885 202.716 885 198L885 167L885 126C885 120.152 886.249 112.608 884.436 107C879.542 91.8636 861.186 75.5484 851.424 63C844.995 54.7353 837.19 39.035 827.91 34.0278C823.279 31.5294 816.095 33.2594 811 32.9105C797.001 31.9518 783.059 32 769 32C753.947 32 739.053 31 724 31C717.506 31 710.518 29.5761 706 35z"/>
<path style="fill:#ff6701; stroke:none;" d="M677 140C690.032 131.126 719 122.035 719 146C712.551 144.24 705.885 140.579 699.001 141.483C696.683 141.787 691.431 143.229 693.752 146.586C699.531 154.949 727.524 149.414 719.995 168.998C719.038 171.486 717.366 173.728 716 176L736 176C731.489 169.376 726.855 163.537 727.379 155C728.34 139.344 741.404 130.953 756 131.001C760.962 131.017 769.054 131.381 771.972 136.225C773.878 139.389 773 144.451 773 148C766.518 146.481 761.103 141.317 754 142.724C742.781 144.945 740.009 162.216 750.018 167.86C758.438 172.608 765.217 166.001 773 164L773 177L782 177L782 113L798 113L798 136C802.359 134.416 806.308 131.764 811 131.185C832.256 128.565 831 152.66 831 167C851.534 152.231 866.836 125.634 884 107C872.207 88.0629 856.558 70.5655 842.79 53C838.544 47.5823 832.9 36.422 825.961 34.4337C820.974 33.0046 815.137 34.3191 810 33.8302C789.76 31.9041 769.21 34.7535 749 32.8302C738.787 31.8584 718.367 28.197 709.089 33.179C697.135 39.5986 686.196 58.7364 677.282 69C670.376 76.9514 663.575 84.9971 656.729 93C654.476 95.6342 650.13 99.2178 650.128 103C650.127 106.939 654.878 111.09 657.119 114C663.771 122.639 670.635 131.146 677 140z"/>
<path style="fill:#6f7733; stroke:none;" d="M241 33L200.583 101L190 134C204.064 141.471 199 166.611 199 180L190 180L200.414 210L239 278L240 278L240 212L241 177C238.102 178.517 235.285 180.276 232 180.786C205.578 184.893 211 148.046 211 132L228 132L227 155C233.449 152.871 240.76 139.574 241.786 133C245.254 110.781 242 85.5073 242 63C242 54.2032 244.407 41.1183 241 33M453 34C453 66.4915 451.183 99.5677 453.043 132C453.903 146.982 470.947 154.201 456 168L456 169C472.75 167.63 467 144.805 467 132L483 132L483 180L467 180L467 176L451 181L451 280L452 280C460.748 263.563 471.223 247.962 480.8 232C484.91 225.151 491.045 217.685 493.351 210C497.172 197.265 494 179.283 494 166C494 147.107 497.566 124.167 493.494 105.715C491.61 97.1759 484.572 88.5484 480.281 81C471.682 65.8765 464.08 47.3595 453 34z"/>
<path style="fill:#ff6701; stroke:none;" d="M34 156L34 157C-2.7412 174.478 -8.15203 222.526 20.1698 249.575C61.0626 288.63 151.25 289.257 186.215 241C196.624 226.632 195.901 212.605 198 196L197 196L197 199L196 199C195.291 190.885 192.333 180.306 183 180L183 176C173.957 180.202 162.507 184.881 154.394 175.812C151.309 172.364 150.755 167.622 148 164L159.001 153.089L180 145L180 143L154 144C154.002 126.422 175.838 129.301 189 133C209.299 98.2146 187.869 65.2368 156 48.0278C118.264 27.6507 59.5691 31.1155 26 58.311C-6.48295 84.6265 -7.08961 136.453 34 156z"/>
<path style="fill:#010101; stroke:none;" d="M705 36L706 37L705 36M704 37L705 38L704 37M703 38L704 39L703 38M702 39L703 40L702 39M701 40L702 41L701 40M700.333 41.6667L700.667 42.3333L700.333 41.6667M699 43L700 44L699 43M698 44L699 45L698 44M697 45L698 46L697 45M696 46L697 47L696 46M695 47L696 48L695 47z"/>
<path style="fill:#6f7733; stroke:none;" d="M495 48L495 150L497 150L497 132L513 132L513 136C527.745 130.642 546.534 128.663 545 151L559 150L559 132L575 132L575 136C589.745 130.642 608.534 128.663 607 151L646 149L646 142L621 144C621.002 128.483 633.448 131 646 131L646 48L495 48z"/>
<path style="fill:#010101; stroke:none;" d="M694.333 48.6667L694.667 49.3333L694.333 48.6667M693 50L694 51L693 50M692 51L693 52L692 51M691 52L692 53L691 52M690 53L691 54L690 53M689 54L690 55L689 54M688.333 55.6667L688.667 56.3333L688.333 55.6667M687 57L688 58L687 57M686 58L687 59L686 58M685 59L686 60L685 59M684 60L685 61L684 60M683 61L684 62L683 61M682.333 62.6667L682.667 63.3333L682.333 62.6667M681 64L682 65L681 64M680 65L681 66L680 65M679 66L680 67L679 66M678 67L679 68L678 67M677 68L678 69L677 68M676 69L677 70L676 69M675.333 70.6667L675.667 71.3333L675.333 70.6667M674 72L675 73L674 72M673 73L674 74L673 73M672 74L673 75L672 74M671 75L672 76L671 75M670 76L671 77L670 76M669.333 77.6667L669.667 78.3333L669.333 77.6667M668 79L669 80L668 79M667 80L668 81L667 80M666 81L667 82L666 81M665 82L666 83L665 82M664 83L665 84L664 83M663.333 84.6667L663.667 85.3333L663.333 84.6667M662 86L663 87L662 86M661 87L662 88L661 87M660 88L661 89L660 88M659 89L660 90L659 89M658 90L659 91L658 90M657.333 91.6667L657.667 92.3333L657.333 91.6667M656 93L657 94L656 93M655 94L656 95L655 94M654 95L655 96L654 95M653 96L654 97L653 96M652 97L653 98L652 97M651.333 98.6667L651.667 99.3333L651.333 98.6667M650 100L651 101L650 100M649 101L650 102L649 101M648 102L648 131L649 131L649 105L650 105L676 140L677 140C670.557 127.065 658.323 112.115 648 102M290 120L290 121L347 105L330 108.14L290 120z"/>
<path style="fill:#ff6701; stroke:none;" d="M290 180L274 180L274 125L252 131L252 132L260 132L260 180L251 180L251 181L318 200.72L344 208.312L373 201L421 187.291L444 180C429.754 169.047 434 148.078 434 132L439 132C422.159 122.846 399.36 119.621 381 113.975C371.091 110.928 358.396 104.65 348 104.65C339.372 104.65 329.256 109.337 321 111.709C314.133 113.682 295.224 115.599 291.028 121.513C288.399 125.219 290 133.645 290 138L290 180z"/>
<path style="fill:#010101; stroke:none;" d="M349 104L349 105L352 105L349 104M352 105L352 106L356 106L352 105z"/>
<path style="fill:#6f7733; stroke:none;" d="M649 105C649 110.949 646.325 125.477 650.028 130.273C654.136 135.596 661.489 134.324 664.437 142.001C668.648 152.968 666 168.395 666 180L650 180L648 176L649 204C660.108 196.01 675.989 179.009 676 165C681.312 166.485 684.405 165.611 686 160C677.412 155.541 674.748 148.927 678 140L649 105z"/>
<path style="fill:#010101; stroke:none;" d="M200 106L213 131L214 131L200 106M356 106L356 107L359 107L356 106M359 107L359 108L362 108L359 107M362 108L362 109L366 109L362 108M492 108L479 131L480 131C483.659 125.47 492.977 114.697 492 108z"/>
<path style="fill:#6f7733; stroke:none;" d="M883 108L851.271 145L830 168L831 180L823 180L823 280C839.891 267.568 853.609 245.939 867.271 230C872.011 224.47 881.557 217.027 883.566 209.961C888.392 192.993 884 168.675 884 151C884 138.794 887.707 119.218 883 108z"/>
<path style="fill:#ff6701; stroke:none;" d="M198 109L199 110L198 109z"/>
<path style="fill:#010101; stroke:none;" d="M366 109L366 110L369 110L366 109M369 110L369 111L372 111L369 110z"/>
<path style="fill:#ff6701; stroke:none;" d="M198 111L199 112L198 111z"/>
<path style="fill:#010101; stroke:none;" d="M372 111L372 112L376 112L372 111M376 112L376 113L379 113L376 112z"/>
<path style="fill:#fffefe; stroke:none;" d="M274 113L274 180L290 180L289 113L274 113z"/>
<path style="fill:#cf9c80; stroke:none;" d="M289 113L289 121L290 121L289 113z"/>
<path style="fill:#010101; stroke:none;" d="M379 113L379 114L382 114L379 113z"/>
<path style="fill:#fffefe; stroke:none;" d="M782 113L782 180L797 180C798.644 171.145 794.153 153.741 799.028 146.419C802.499 141.205 811.075 142.874 813.486 148.044C817.537 156.731 815 170.611 815 180L830 180C830 163.883 835.965 122.387 807 132.105C803.685 133.217 800.824 134.991 798 137L798 113L782 113z"/>
<path style="fill:#010101; stroke:none;" d="M196 114L196 118L197 118L196 114M382 114L382 115L386 115L382 114z"/>
<path style="fill:#6f7733; stroke:none;" d="M1 115L1 198L2 198C4.48784 181.154 18.6508 165.255 33 157L33 156C15.6596 146.024 9.8821 131.341 1 115z"/>
<path style="fill:#010101; stroke:none;" d="M2 115L2 119L3 119L2 115M386 115L386 116L389 116L386 115z"/>
<path style="fill:#ff6701; stroke:none;" d="M197 116L198 117L197 116z"/>
<path style="fill:#010101; stroke:none;" d="M389 116L389 117L392 117L389 116M392 117L392 118L395 118L392 117M195.333 118.667L195.667 119.333L195.333 118.667z"/>
<path style="fill:#fffefe; stroke:none;" d="M335 118L335 132L329 132L329 142L335 142C335 151.983 331.466 170.399 340.109 177.57C346.674 183.018 357.301 180.973 365 180L365 170C346.432 172.345 350 155.851 350 142L365 142L365 132L350 132L350 118L335 118z"/>
<path style="fill:#cf9c80; stroke:none;" d="M350 118L350 132L351 132L350 118z"/>
<path style="fill:#010101; stroke:none;" d="M395 118L395 119L399 119L395 118M3 119L3 122L4 122L3 119M399 119L399 120L402 120L399 119M402 120L402 121L405 121L402 120M194 121L195 122L194 121M405 121L405 122L409 122L405 121M4 122L4 125L5 125L4 122M409 122L409 123L412 123L409 122M412 123L412 124L415 124L412 123M193.333 124.667L193.667 125.333L193.333 124.667M273 124L274 125L273 124M415 124L415 125L419 125L415 124M5.33333 125.667L5.66667 126.333L5.33333 125.667M270 125L270 126L273 126L270 125M419 125L419 126L422 126L419 125M192.333 126.667L192.667 127.333L192.333 126.667M266 126L266 127L270 127L266 126M422 126L422 127L425 127L422 126M6.33333 127.667L6.66667 128.333L6.33333 127.667M263 127L263 128L266 128L263 127M425 127L425 128L429 128L425 127M191.333 128.667L191.667 129.333L191.333 128.667M259 128L259 129L263 129L259 128M429 128L429 129L432 129L429 128M7.33333 129.667L7.66667 130.333L7.33333 129.667M256 129L256 130L259 130L256 129M432 129L432 130L435 130L432 129M190.333 130.667L190.667 131.333L190.333 130.667M252 130L252 131L256 131L252 130M435 130L435 131L439 131L435 130M8 131L9 132L8 131z"/>
<path style="fill:#cf9c80; stroke:none;" d="M118 131L119 132L118 131z"/>
<path style="fill:#fffefe; stroke:none;" d="M109 136L109 132L93 132L93 198L109 198L109 178C113.519 180 117.998 181.292 123 180.906C150.246 178.804 150.005 127.608 121 131.185C116.597 131.728 112.856 133.98 109 136z"/>
<path style="fill:#cf9c80; stroke:none;" d="M129 131L130 132L129 131M162 131L162 132L166 132L162 131z"/>
<path style="fill:#fffefe; stroke:none;" d="M155 133L155 144C164.064 142.666 179.339 136.108 183 149C174.156 149.183 160.875 149.421 154.394 156.329C147.597 163.575 151.056 176.343 160 179.852C167.909 182.955 176.773 180.099 183 175L183 180L198 180C198 168.949 201.893 148.625 195.991 139.015C188.469 126.77 166.646 130.837 155 133z"/>
<path style="fill:#cf9c80; stroke:none;" d="M182.667 131.333L183.333 131.667L182.667 131.333z"/>
<path style="fill:#010101; stroke:none;" d="M214 131L215 132L214 131M249 131L249 132L252 132L249 131M439 131L439 132L442 132L439 131M478 131L479 132L478 131z"/>
<path style="fill:#cf9c80; stroke:none;" d="M523 131L524 132L523 131z"/>
<path style="fill:#fffefe; stroke:none;" d="M512 137L512 132L497 132L497 180L512 180C512 172.284 512.884 164.662 512.982 157C513.022 153.779 511.488 149.173 513.643 146.419C517.902 140.974 526.679 143.003 528.968 149.015C532.306 157.786 530 170.71 530 180L545 180C545 164.029 551.223 123.771 523 131.789C519.086 132.9 515.573 135.12 512 137z"/>
<path style="fill:#cf9c80; stroke:none;" d="M533.667 131.333L534.333 131.667L533.667 131.333M585 131L586 132L585 131z"/>
<path style="fill:#fffefe; stroke:none;" d="M574 137L574 132L559 132L559 180L574 180C574 172.284 574.884 164.662 574.982 157C575.022 153.779 573.488 149.173 575.643 146.419C579.902 140.974 588.679 143.003 590.968 149.015C594.306 157.786 592 170.71 592 180L607 180C607 164.029 613.223 123.771 585 131.789C581.086 132.9 577.573 135.12 574 137z"/>
<path style="fill:#cf9c80; stroke:none;" d="M595.667 131.333L596.333 131.667L595.667 131.333M629 131L629 132L633 132L629 131M648 131L648 132L651 132L648 131M692.667 131.333L693.333 131.667L692.667 131.333z"/>
<path style="fill:#fffefe; stroke:none;" d="M676 165C676 168.544 674.886 174.507 677.603 177.272C687.476 187.321 717.48 180.998 720.453 167C722.922 155.373 710.867 151.535 702 149.917C699.628 149.484 691.932 148.365 693.346 144.35C696.445 135.549 713.983 145.106 719 146C719 142.619 719.944 137.375 717.397 134.703C709.242 126.15 684.007 130.576 678.417 140.09C677.379 141.857 676.625 143.956 676.419 146C674.536 164.68 696.716 156.348 703.248 165.495C708.39 172.693 688.248 169.71 686 168.96C682.578 167.818 679.443 166.068 676 165z"/>
<path style="fill:#cf9c80; stroke:none;" d="M708.667 131.333L709.333 131.667L708.667 131.333M747.667 131.333L748.333 131.667L747.667 131.333z"/>
<path style="fill:#fffefe; stroke:none;" d="M772 164C765.112 166.606 758.727 172.469 751.005 168.543C740.402 163.154 742.001 144.996 754 142.398C760.659 140.956 766.033 146.112 772 148C772 144.37 773.074 138.578 770.972 135.419C768.248 131.326 760.368 131.036 756 131.005C740.443 130.894 728.002 139.65 728.002 156C728.002 172.565 740.229 180.993 756 180.992C760.357 180.992 768.26 180.657 770.972 176.581C773.074 173.422 772 167.63 772 164z"/>
<path style="fill:#cf9c80; stroke:none;" d="M762.667 131.333L763.333 131.667L762.667 131.333M808 131L809 132L808 131M818.667 131.333L819.333 131.667L818.667 131.333z"/>
<path style="fill:#010101; stroke:none;" d="M9.33333 132.667L9.66667 133.333L9.33333 132.667z"/>
<path style="fill:#cf9c80; stroke:none;" d="M115 132L116 133L115 132M132 132L133 133L132 132M156.667 132.333L157.333 132.667L156.667 132.333M187 132L188 133L187 132z"/>
<path style="fill:#010101; stroke:none;" d="M189 132L190 133L189 132z"/>
<path style="fill:#cf9c80; stroke:none;" d="M211 132L211 164L212 164L211 132z"/>
<path style="fill:#fffefe; stroke:none;" d="M212 132C212 148.117 206.035 189.613 235 179.895C238.315 178.783 241.176 177.009 244 175C245.561 182.156 254.145 180 260 180L260 132C256.136 132 249.945 130.821 246.434 132.603C238.51 136.625 247.526 158.742 242.972 165.581C239.05 171.471 230.118 168.71 227.894 162.995C224.555 154.42 227 141.134 227 132L212 132z"/>
<path style="fill:#cf9c80; stroke:none;" d="M227 132L227 154L228 154L227 132M244.333 132.667L244.667 133.333L244.333 132.667M328 132L328 142L329 142L328 132M434 132L434 165L435 165L434 132z"/>
<path style="fill:#fffefe; stroke:none;" d="M435 132C435 147.961 428.553 186.794 456 180.471C460.321 179.475 464.032 176.852 468 175L468 180L483 180L483 132L468 132C468 140.326 471.305 157.585 466.972 164.775C463.507 170.526 454.263 169.675 451.434 163.956C447.289 155.581 450 141.17 450 132L435 132z"/>
<path style="fill:#cf9c80; stroke:none;" d="M450.333 132.667L450.667 133.333L450.333 132.667M467 132L467 166L468 166L467 132M512 132L514 137L512 132M520 132L521 133L520 132M536 132L537 133L536 132M574 132L576 137L574 132M582 132L583 133L582 132M598 132L599 133L598 132M623 132L623 133L626 133L623 132M654 132L655 133L654 132M688 132L689 133L688 132M713 132L714 133L713 132M744 132L745 133L744 132M766 132L767 133L766 132M805 132L806 133L805 132M821 132L822 133L821 132M113 133L114 134L113 133M154 133L154 144L155 144L154 133M518 133L519 134L518 133M538 133L539 134L538 133M580 133L581 134L580 133M600 133L601 134L600 133M621 133L621 144L622 144L621 133M686 133L687 134L686 133M716 133L717 134L716 133M741 133L742 134L741 133M769 133L770 134L769 133M803 133L804 134L803 133M823 133L824 134L823 133z"/>
<path style="fill:#010101; stroke:none;" d="M10 134L11 135L10 134z"/>
<path style="fill:#cf9c80; stroke:none;" d="M111 134L112 135L111 134M135 134L136 135L135 134z"/>
<path style="fill:#ff6701; stroke:none;" d="M243 134C234.845 147.323 227.364 154.356 236 169C246.833 165.816 247.021 143.583 243 134z"/>
<path style="fill:#cf9c80; stroke:none;" d="M516 134L517 135L516 134M578 134L579 135L578 134M718 134L719 135L718 134M739 134L740 135L739 134M771 134L772 135L771 134M801 134L802 135L801 134z"/>
<path style="fill:#010101; stroke:none;" d="M11.3333 135.667L11.6667 136.333L11.3333 135.667z"/>
<path style="fill:#cf9c80; stroke:none;" d="M110 135L111 136L110 135M136 135L137 136L136 135M193 135L194 136L193 135z"/>
<path style="fill:#010101; stroke:none;" d="M241.333 135.667L241.667 136.333L241.333 135.667z"/>
<path style="fill:#cf9c80; stroke:none;" d="M450 135L450 162L451 162L450 135z"/>
<path style="fill:#ff6701; stroke:none;" d="M451 135C451 142.998 450.892 151.003 451.004 159C451.041 161.64 450.869 166.302 454.135 167.248C458.174 168.418 462.04 160.016 462.477 157C463.393 150.67 455.3 139.242 451 135z"/>
<path style="fill:#cf9c80; stroke:none;" d="M660 135L661 136L660 135M682 135L683 136L682 135M737 135L738 136L737 135M772 135L772 148L773 148L772 135M137 136L138 137L137 136M194 136L195 137L194 136z"/>
<path style="fill:#010101; stroke:none;" d="M453.333 136.667L453.667 137.333L453.333 136.667z"/>
<path style="fill:#cf9c80; stroke:none;" d="M661 136L662 137L661 136M681 136L682 137L681 136M736 136L737 137L736 136M798 136L799 137L798 136z"/>
<path style="fill:#010101; stroke:none;" d="M12 137L13 138L12 137z"/>
<path style="fill:#cf9c80; stroke:none;" d="M195 137L196 138L195 137z"/>
<path style="fill:#010101; stroke:none;" d="M240.333 137.667L240.667 138.333L240.333 137.667z"/>
<path style="fill:#cf9c80; stroke:none;" d="M542 137L543 138L542 137M604 137L605 138L604 137M662 137L663 138L662 137M827 137L828 138L827 137z"/>
<path style="fill:#010101; stroke:none;" d="M13 138L14 139L13 138M454.333 138.667L454.667 139.333L454.333 138.667M14.3333 139.667L14.6667 140.333L14.3333 139.667z"/>
<path style="fill:#cf9c80; stroke:none;" d="M139 139L140 140L139 139M196 139L197 140L196 139z"/>
<path style="fill:#010101; stroke:none;" d="M239 139L240 140L239 139z"/>
<path style="fill:#cf9c80; stroke:none;" d="M543 139L544 140L543 139M605 139L606 140L605 139M663 139L664 140L663 139M678 139L679 140L678 139M828 139L829 140L828 139z"/>
<path style="fill:#010101; stroke:none;" d="M238.333 140.667L238.667 141.333L238.333 140.667M455.333 140.667L455.667 141.333L455.333 140.667z"/>
<path style="fill:#cf9c80; stroke:none;" d="M732 140L733 141L732 140z"/>
<path style="fill:#010101; stroke:none;" d="M15 141L16 142L15 141z"/>
<path style="fill:#cf9c80; stroke:none;" d="M140 141L141 142L140 141M165 141L165 142L168 142L165 141M173 141L173 142L176 142L173 141M197 141L198 142L197 141M544.333 141.667L544.667 142.333L544.333 141.667M606.333 141.667L606.667 142.333L606.333 141.667M632 141L632 142L635 142L632 141M641 141L641 142L644 142L641 141M664 141L665 142L664 141M677 141L678 142L677 141M696 141L696 142L699 142L696 141M703 141L703 142L706 142L703 141M731 141L732 142L731 141M829.333 141.667L829.667 142.333L829.333 141.667z"/>
<path style="fill:#010101; stroke:none;" d="M16 142L17 143L16 142z"/>
<path style="fill:#cf9c80; stroke:none;" d="M161.667 142.333L162.333 142.667L161.667 142.333M179 142L180 143L179 142z"/>
<path style="fill:#010101; stroke:none;" d="M237.333 142.667L237.667 143.333L237.333 142.667z"/>
<path style="fill:#cf9c80; stroke:none;" d="M350 142L350 165L351 165L350 142z"/>
<path style="fill:#010101; stroke:none;" d="M456 142L457 143L456 142z"/>
<path style="fill:#cf9c80; stroke:none;" d="M628.667 142.333L629.333 142.667L628.667 142.333M646 142L647 143L646 142M708.667 142.333L709.333 142.667L708.667 142.333M752 142L752 143L755 143L752 142M758 142L758 143L761 143L758 142z"/>
<path style="fill:#010101; stroke:none;" d="M17 143L18 144L17 143z"/>
<path style="fill:#cf9c80; stroke:none;" d="M114.667 143.333L115.333 143.667L114.667 143.333z"/>
<path style="fill:#ff6701; stroke:none;" d="M109 145L109 169C113.596 169.568 118.706 170.445 122.657 167.272C128.454 162.615 129.014 148.3 121.891 144.576C117.763 142.418 113.228 144.128 109 145z"/>
<path style="fill:#cf9c80; stroke:none;" d="M119.667 143.333L120.333 143.667L119.667 143.333M141 143L142 144L141 143M158 143L159 144L158 143z"/>
<path style="fill:#6f7733; stroke:none;" d="M180 143L176 148L176 149L183 149L180 143z"/>
<path style="fill:#010101; stroke:none;" d="M457.333 143.667L457.667 144.333L457.333 143.667z"/>
<path style="fill:#cf9c80; stroke:none;" d="M518.667 143.333L519.333 143.667L518.667 143.333z"/>
<path style="fill:#6f7733; stroke:none;" d="M513 150L529 150C527.188 141.283 514.456 141.082 513 150z"/>
<path style="fill:#cf9c80; stroke:none;" d="M524 143L525 144L524 143M580.667 143.333L581.333 143.667L580.667 143.333z"/>
<path style="fill:#6f7733; stroke:none;" d="M575 150L591 150C589.188 141.283 576.456 141.082 575 150z"/>
<path style="fill:#cf9c80; stroke:none;" d="M586 143L587 144L586 143M625 143L626 144L625 143z"/>
<path style="fill:#010101; stroke:none;" d="M646 143L646 149L647 149L646 143z"/>
<path style="fill:#cf9c80; stroke:none;" d="M676.333 143.667L676.667 144.333L676.333 143.667M692 143L693 144L692 143M711 143L712 144L711 143M730 143L731 144L730 143M750 143L751 144L750 143M762 143L763 144L762 143M803.667 143.333L804.333 143.667L803.667 143.333z"/>
<path style="fill:#ff6701; stroke:none;" d="M798 177L814 177C814 168.766 816.721 154.745 813.258 147.225C811.038 142.404 801.936 142.136 799.028 146.43C794.821 152.642 798 169.574 798 177z"/>
<path style="fill:#cf9c80; stroke:none;" d="M808.667 143.333L809.333 143.667L808.667 143.333z"/>
<path style="fill:#010101; stroke:none;" d="M18 144L19 145L18 144z"/>
<path style="fill:#cf9c80; stroke:none;" d="M111 144L112 145L111 144M122 144L123 145L122 144z"/>
<path style="fill:#010101; stroke:none;" d="M180 144L181 145L180 144M236 144L237 145L236 144z"/>
<path style="fill:#cf9c80; stroke:none;" d="M515 144L516 145L515 144M577 144L578 145L577 144z"/>
<path style="fill:#6f7733; stroke:none;" d="M648 144L649 145L648 144z"/>
<path style="fill:#cf9c80; stroke:none;" d="M748 144L749 145L748 144M800 144L801 145L800 144M811 144L812 145L811 144z"/>
<path style="fill:#010101; stroke:none;" d="M19 145L20 146L19 145M179 145L180 146L179 145z"/>
<path style="fill:#cf9c80; stroke:none;" d="M182 145L183 146L182 145M198 145L198 180L199 180L198 145z"/>
<path style="fill:#010101; stroke:none;" d="M235.333 145.667L235.667 146.333L235.333 145.667M458.333 145.667L458.667 146.333L458.333 145.667z"/>
<path style="fill:#cf9c80; stroke:none;" d="M513 145L514 146L513 145M575 145L576 146L575 145z"/>
<path style="fill:#010101; stroke:none;" d="M648 145L648 149L649 149L648 145z"/>
<path style="fill:#cf9c80; stroke:none;" d="M649 145L650 146L649 145M665 145L665 180L666 180L665 145M729 145L730 146L729 145M747 145L748 146L747 145M766 145L767 146L766 145M798 145L799 146L798 145z"/>
<path style="fill:#010101; stroke:none;" d="M20 146L21 147L20 146M177.667 146.333L178.333 146.667L177.667 146.333z"/>
<path style="fill:#cf9c80; stroke:none;" d="M512 146L512 151L513 151L512 146M528 146L529 147L528 146M574 146L574 151L575 151L574 146M590 146L591 147L590 146z"/>
<path style="fill:#6f7733; stroke:none;" d="M649 146L649 149L650 149L649 146z"/>
<path style="fill:#cf9c80; stroke:none;" d="M692 146L693 147L692 146M746 146L747 147L746 146M813 146L814 147L813 146z"/>
<path style="fill:#010101; stroke:none;" d="M21 147L22 148L21 147z"/>
<path style="fill:#cf9c80; stroke:none;" d="M125 147L126 148L125 147M142.333 147.667L142.667 148.333L142.333 147.667z"/>
<path style="fill:#010101; stroke:none;" d="M176 147L177 148L176 147M234 147L235 148L234 147M459.333 147.667L459.667 148.333L459.333 147.667z"/>
<path style="fill:#cf9c80; stroke:none;" d="M693 147L694 148L693 147M769 147L770 148L769 147z"/>
<path style="fill:#010101; stroke:none;" d="M22 148L23 149L22 148M175 148L176 149L175 148M233.333 148.667L233.667 149.333L233.333 148.667z"/>
<path style="fill:#cf9c80; stroke:none;" d="M695 148L696 149L695 148M728 148L729 149L728 148M745 148L746 149L745 148M830 148L830 168L831 168L830 148z"/>
<path style="fill:#010101; stroke:none;" d="M23.6667 149.333L24.3333 149.667L23.6667 149.333z"/>
<path style="fill:#cf9c80; stroke:none;" d="M173 149L173 150L177 150L173 149z"/>
<path style="fill:#010101; stroke:none;" d="M460 149L461 150L460 149z"/>
<path style="fill:#cf9c80; stroke:none;" d="M545 149L546 150L545 149M607 149L608 150L607 149M640 149L640 150L644 150L640 149M676.333 149.667L676.667 150.333L676.333 149.667M699.667 149.333L700.333 149.667L699.667 149.333z"/>
<path style="fill:#010101; stroke:none;" d="M25 150L26 151L25 150z"/>
<path style="fill:#cf9c80; stroke:none;" d="M126.333 150.667L126.667 151.333L126.333 150.667M166.667 150.333L167.333 150.667L166.667 150.333z"/>
<path style="fill:#010101; stroke:none;" d="M232.333 150.667L232.667 151.333L232.333 150.667M461.333 150.667L461.667 151.333L461.333 150.667M513 150L513 151L529 151L513 150z"/>
<path style="fill:#cf9c80; stroke:none;" d="M529 150L529 162L530 162L529 150z"/>
<path style="fill:#010101; stroke:none;" d="M546 150L546 151L559 151L546 150M575 150L575 151L591 151L575 150z"/>
<path style="fill:#cf9c80; stroke:none;" d="M591 150L591 162L592 162L591 150z"/>
<path style="fill:#010101; stroke:none;" d="M608 150L608 151L633 151L608 150z"/>
<path style="fill:#cf9c80; stroke:none;" d="M634.667 150.333L635.333 150.667L634.667 150.333M705 150L706 151L705 150M744 150L745 151L744 150z"/>
<path style="fill:#010101; stroke:none;" d="M26 151L27 152L26 151z"/>
<path style="fill:#cf9c80; stroke:none;" d="M162 151L163 152L162 151z"/>
<path style="fill:#010101; stroke:none;" d="M466.333 151.667L466.667 152.333L466.333 151.667z"/>
<path style="fill:#ff6701; stroke:none;" d="M495 151L495 162L497 162L497 151L495 151M513 151L513 162L529 162L529 151L513 151z"/>
<path style="fill:#cf9c80; stroke:none;" d="M545 151L545 162L546 162L545 151z"/>
<path style="fill:#ff6701; stroke:none;" d="M546 151L546 162L559 162L559 151L546 151M575 151L575 162L591 162L591 151L575 151z"/>
<path style="fill:#cf9c80; stroke:none;" d="M607 151L607 162L608 162L607 151z"/>
<path style="fill:#ff6701; stroke:none;" d="M608 151L608 162L629 152L608 151z"/>
<path style="fill:#cf9c80; stroke:none;" d="M629 151L630 152L629 151M709 151L710 152L709 151M814 151L814 177L815 177L814 151z"/>
<path style="fill:#010101; stroke:none;" d="M27 152L28 153L27 152z"/>
<path style="fill:#cf9c80; stroke:none;" d="M159 152L160 153L159 152z"/>
<path style="fill:#010101; stroke:none;" d="M231 152L232 153L231 152M462.333 152.667L462.667 153.333L462.333 152.667z"/>
<path style="fill:#cf9c80; stroke:none;" d="M626 152L627 153L626 152M712 152L713 153L712 152z"/>
<path style="fill:#010101; stroke:none;" d="M28.6667 153.333L29.3333 153.667L28.6667 153.333z"/>
<path style="fill:#cf9c80; stroke:none;" d="M157 153L158 154L157 153z"/>
<path style="fill:#010101; stroke:none;" d="M230.333 153.667L230.667 154.333L230.333 153.667M465.333 153.667L465.667 154.333L465.333 153.667z"/>
<path style="fill:#cf9c80; stroke:none;" d="M624 153L625 154L624 153M677 153L678 154L677 153M714 153L715 154L714 153M727 153L727 159L728 159L727 153z"/>
<path style="fill:#010101; stroke:none;" d="M30 154L31 155L30 154z"/>
<path style="fill:#cf9c80; stroke:none;" d="M156 154L157 155L156 154z"/>
<path style="fill:#010101; stroke:none;" d="M463 154L463 158L464 158L463 154z"/>
<path style="fill:#cf9c80; stroke:none;" d="M623 154L624 155L623 154M678 154L679 155L678 154z"/>
<path style="fill:#010101; stroke:none;" d="M31.6667 155.333L32.3333 155.667L31.6667 155.333z"/>
<path style="fill:#cf9c80; stroke:none;" d="M227 155L227 163L228 163L227 155z"/>
<path style="fill:#010101; stroke:none;" d="M228 155L235 169L236 169L228 155M33 156L34 157L33 156M31.6667 157.333L32.3333 157.667L31.6667 157.333M34.6667 157.333L35.3333 157.667L34.6667 157.333z"/>
<path style="fill:#6f7733; stroke:none;" d="M228 157C228.018 163.186 228.427 167.242 235 169L228 157z"/>
<path style="fill:#010101; stroke:none;" d="M30 158L31 159L30 158M36.6667 158.333L37.3333 158.667L36.6667 158.333z"/>
<path style="fill:#cf9c80; stroke:none;" d="M152 158L153 159L152 158M178 158L178 159L182 159L178 158z"/>
<path style="fill:#6f7733; stroke:none;" d="M182 158L172 160L183 168L182 158z"/>
<path style="fill:#010101; stroke:none;" d="M462.333 158.667L462.667 159.333L462.333 158.667z"/>
<path style="fill:#cf9c80; stroke:none;" d="M619 158L620 159L619 158M645.667 158.333L646.333 158.667L645.667 158.333z"/>
<path style="fill:#6f7733; stroke:none;" d="M648 158L648 169L649 169C650.068 165.389 651.08 160.691 648 158z"/>
<path style="fill:#cf9c80; stroke:none;" d="M682 158L683 159L682 158M719 158L720 159L719 158z"/>
<path style="fill:#010101; stroke:none;" d="M28.6667 159.333L29.3333 159.667L28.6667 159.333M38.6667 159.333L39.3333 159.667L38.6667 159.333z"/>
<path style="fill:#cf9c80; stroke:none;" d="M171.667 159.333L172.333 159.667L171.667 159.333M639.667 159.333L640.333 159.667L639.667 159.333z"/>
<path style="fill:#ff6701; stroke:none;" d="M635 161L635 162L646 162L646 159L635 161z"/>
<path style="fill:#010101; stroke:none;" d="M646 159C643.385 163.033 638.386 162 634 162L634 163L646 163L646 169L647 169L646 159M648 159L648 168L649 168L648 159z"/>
<path style="fill:#cf9c80; stroke:none;" d="M684 159L685 160L684 159z"/>
<path style="fill:#010101; stroke:none;" d="M27 160L28 161L27 160M40.6667 160.333L41.3333 160.667L40.6667 160.333z"/>
<path style="fill:#cf9c80; stroke:none;" d="M126.333 160.667L126.667 161.333L126.333 160.667M151 160L152 161L151 160M169 160L170 161L169 160z"/>
<path style="fill:#010101; stroke:none;" d="M170 160L170 161L181 169L170 160M461 160L462 161L461 160z"/>
<path style="fill:#cf9c80; stroke:none;" d="M618 160L619 161L618 160M636 160L637 161L636 160M686.667 160.333L687.333 160.667L686.667 160.333z"/>
<path style="fill:#010101; stroke:none;" d="M26 161L27 162L26 161M42.6667 161.333L43.3333 161.667L42.6667 161.333z"/>
<path style="fill:#cf9c80; stroke:none;" d="M142.333 161.667L142.667 162.333L142.333 161.667z"/>
<path style="fill:#ff6701; stroke:none;" d="M180 169C178.713 167.513 177.447 166.149 175.941 164.865C165.795 156.213 164.732 174.676 180 169z"/>
<path style="fill:#010101; stroke:none;" d="M460.333 161.667L460.667 162.333L460.333 161.667M686 161L682 167L686 161z"/>
<path style="fill:#ff6701; stroke:none;" d="M687 161L682 168C686.287 168.883 697.717 173.989 699 168C701.784 169.703 706.065 167.838 702.623 164.854C699.41 162.068 691.162 161.818 687 161z"/>
<path style="fill:#cf9c80; stroke:none;" d="M689.667 161.333L690.333 161.667L689.667 161.333M720 161L721 162L720 161M744 161L745 162L744 161z"/>
<path style="fill:#010101; stroke:none;" d="M25 162L26 163L25 162M44 162L45 163L44 162z"/>
<path style="fill:#cf9c80; stroke:none;" d="M512 162L512 180L513 180L512 162z"/>
<path style="fill:#010101; stroke:none;" d="M513 162L513 163L529 163L513 162z"/>
<path style="fill:#6f7733; stroke:none;" d="M529 162L513 163L513 180L497 180L497 163L495 163L495 266L646 266L646 179C633.946 181.755 614.55 180.942 618 163L607 162L608 180L591 180L592 162L575 163L575 180L559 180L559 163L545 162L546 180L529 180L529 162z"/>
<path style="fill:#010101; stroke:none;" d="M546 162L546 163L559 163L546 162z"/>
<path style="fill:#cf9c80; stroke:none;" d="M574 162L574 180L575 180L574 162z"/>
<path style="fill:#010101; stroke:none;" d="M575 162L575 163L591 163L575 162M608 162L608 163L618 163L608 162z"/>
<path style="fill:#6f7733; stroke:none;" d="M694 162L695 163L694 162z"/>
<path style="fill:#cf9c80; stroke:none;" d="M695.667 162.333L696.333 162.667L695.667 162.333z"/>
<path style="fill:#010101; stroke:none;" d="M23.6667 163.333L24.3333 163.667L23.6667 163.333M45 163L45 164L48 164L45 163z"/>
<path style="fill:#cf9c80; stroke:none;" d="M150 163L151 164L150 163M166 163L166 168L167 168L166 163M374 163L374 180L375 180L374 163z"/>
<path style="fill:#fffefe; stroke:none;" d="M375 163L375 180L391 180L391 163L375 163z"/>
<path style="fill:#010101; stroke:none;" d="M459.333 163.667L459.667 164.333L459.333 163.667z"/>
<path style="fill:#cf9c80; stroke:none;" d="M529 163L529 180L530 180L529 163M545 163L545 180L546 180L545 163M591 163L591 180L592 180L591 163M607 163L607 180L608 180L607 163M633 163L633 168L634 168L633 163z"/>
<path style="fill:#6f7733; stroke:none;" d="M634 163C634.28 171.521 640.068 170.871 647 170L646 163L634 163z"/>
<path style="fill:#010101; stroke:none;" d="M695 163L696 164L695 163z"/>
<path style="fill:#cf9c80; stroke:none;" d="M700 163L701 164L700 163M728.333 163.667L728.667 164.333L728.333 163.667z"/>
<path style="fill:#010101; stroke:none;" d="M22 164L23 165L22 164M48.6667 164.333L49.3333 164.667L48.6667 164.333z"/>
<path style="fill:#cf9c80; stroke:none;" d="M125 164L126 165L125 164z"/>
<path style="fill:#010101; stroke:none;" d="M148.667 164.333L149.333 164.667L148.667 164.333z"/>
<path style="fill:#6f7733; stroke:none;" d="M150 164L151 165L150 164z"/>
<path style="fill:#cf9c80; stroke:none;" d="M617 164L617 169L618 169L617 164z"/>
<path style="fill:#010101; stroke:none;" d="M696 164L699 168L696 164z"/>
<path style="fill:#cf9c80; stroke:none;" d="M703 164L704 165L703 164M745 164L746 165L745 164M769 164L770 165L769 164M772 164L771 178L772 178L772 164z"/>
<path style="fill:#010101; stroke:none;" d="M21 165L22 166L21 165M50 165L50 166L53 166L50 165z"/>
<path style="fill:#cf9c80; stroke:none;" d="M124 165L125 166L124 165M141.333 165.667L141.667 166.333L141.333 165.667z"/>
<path style="fill:#010101; stroke:none;" d="M146.667 165.333L147.333 165.667L146.667 165.333z"/>
<path style="fill:#cf9c80; stroke:none;" d="M150 165L150 169L151 169L150 165M228 165L229 166L228 165M451 165L452 166L451 165z"/>
<path style="fill:#010101; stroke:none;" d="M458 165L459 166L458 165z"/>
<path style="fill:#cf9c80; stroke:none;" d="M678 165L679 166L678 165M704 165L705 166L704 165M746 165L747 166L746 165M768 165L769 166L768 165z"/>
<path style="fill:#010101; stroke:none;" d="M20 166L21 167L20 166M53.6667 166.333L54.3333 166.667L53.6667 166.333M143 166L143 167L146 167L143 166z"/>
<path style="fill:#cf9c80; stroke:none;" d="M243 166L244 167L243 166z"/>
<path style="fill:#010101; stroke:none;" d="M457.333 166.667L457.667 167.333L457.333 166.667z"/>
<path style="fill:#cf9c80; stroke:none;" d="M466 166L467 167L466 166M729 166L730 167L729 166M747 166L748 167L747 166z"/>
<path style="fill:#010101; stroke:none;" d="M19 167L20 168L19 167M55 167L55 168L58 168L55 167M141.667 167.333L142.333 167.667L141.667 167.333z"/>
<path style="fill:#cf9c80; stroke:none;" d="M241 167L242 168L241 167M464 167L465 168L464 167M681 167L682 168L681 167M720.333 167.667L720.667 168.333L720.333 167.667M748 167L749 168L748 167M765 167L766 168L765 167z"/>
<path style="fill:#010101; stroke:none;" d="M18 168L19 169L18 168M58 168L58 169L62 169L58 168z"/>
<path style="fill:#cf9c80; stroke:none;" d="M121 168L122 169L121 168M140 168L141 169L140 168M181 168L182 169L181 168M231.667 168.333L232.333 168.667L231.667 168.333M237.667 168.333L238.333 168.667L237.667 168.333M455 168L456 169L455 168M460.667 168.333L461.333 168.667L460.667 168.333M684 168L685 169L684 168z"/>
<path style="fill:#010101; stroke:none;" d="M699.333 168.667L699.667 169.333L699.333 168.667z"/>
<path style="fill:#cf9c80; stroke:none;" d="M704 168L705 169L704 168M750 168L751 169L750 168M763 168L764 169L763 168z"/>
<path style="fill:#010101; stroke:none;" d="M17 169L18 170L17 169M62 169L62 170L65 170L62 169z"/>
<path style="fill:#cf9c80; stroke:none;" d="M110 169L110 170L113 170L110 169M117.667 169.333L118.333 169.667L117.667 169.333M168 169L169 170L168 169M179 169L180 170L179 169M212.333 169.667L212.667 170.333L212.333 169.667M335.333 169.667L335.667 170.333L335.333 169.667M352 169L353 170L352 169M435.333 169.667L435.667 170.333L435.333 169.667M687 169L688 170L687 169M703 169L704 170L703 169M752 169L752 170L755 170L752 169M758 169L758 170L761 170L758 169z"/>
<path style="fill:#010101; stroke:none;" d="M16 170L17 171L16 170M65 170L65 171L69 171L65 170z"/>
<path style="fill:#cf9c80; stroke:none;" d="M139 170L140 171L139 170M170.667 170.333L171.333 170.667L170.667 170.333M175 170L175 171L178 171L175 170M354.667 170.333L355.333 170.667L354.667 170.333M359 170L359 171L362 171L359 170M637 170L638 171L637 170M643.667 170.333L644.333 170.667L643.667 170.333M691 170L691 171L694 171L691 170M699.667 170.333L700.333 170.667L699.667 170.333M719 170L720 171L719 170M731 170L732 171L731 170M830 170L830 180L831 180L830 170z"/>
<path style="fill:#010101; stroke:none;" d="M15 171L16 172L15 171M69 171L69 172L75 172L69 171z"/>
<path style="fill:#cf9c80; stroke:none;" d="M151 171L152 172L151 171M618 171L619 172L618 171z"/>
<path style="fill:#010101; stroke:none;" d="M14.3333 172.667L14.6667 173.333L14.3333 172.667M75 172L75 173L80 173L75 172z"/>
<path style="fill:#cf9c80; stroke:none;" d="M213 172L214 173L213 172M436 172L437 173L436 172M718 172L719 173L718 172z"/>
<path style="fill:#010101; stroke:none;" d="M80 173L80 174L91 174L80 173z"/>
<path style="fill:#cf9c80; stroke:none;" d="M137 173L138 174L137 173M336 173L337 174L336 173M619 173L620 174L619 173M717 173L718 174L717 173z"/>
<path style="fill:#010101; stroke:none;" d="M13 174L14 175L13 174M91.6667 174.333L92.3333 174.667L91.6667 174.333z"/>
<path style="fill:#cf9c80; stroke:none;" d="M136 174L137 175L136 174M214 174L215 175L214 174M437 174L438 175L437 174z"/>
<path style="fill:#010101; stroke:none;" d="M675 174L649 204L649 177L648 177C648 185.93 645.708 198.551 648.728 207C654.236 222.411 671.988 237.953 681.87 251C687.939 259.012 695.6 273.897 704.3 278.972C710.923 282.835 728.239 281 736 281C751.561 281.001 767.477 280.027 783 281.09C795.617 281.953 811.726 284.628 824 281L823 246L823 180L822 180L822 281L705 279L705 181L704 181L704 277C689.675 260.446 677.016 242.278 663.576 225C660.318 220.812 650.324 211.937 650.47 206.424C650.79 194.298 674.221 186.374 675 174M12 175L13 176L12 175z"/>
<path style="fill:#cf9c80; stroke:none;" d="M135 175L136 176L135 175M153 175L154 176L153 175M182 175L183 176L182 175M243 175L244 176L243 175M337 175L338 176L337 175M466 175L467 180L468 180L466 175M620 175L621 176L620 175M649 175L650 176L649 175z"/>
<path style="fill:#ff6701; stroke:none;" d="M675 175C669.786 182.431 663.18 189.095 657.271 196C654.962 198.698 650.614 202.281 650.172 206C649.481 211.823 659.423 220.704 662.79 225C675.679 241.444 687.809 263.82 704 277L704 181C694.283 181 682.349 182.598 675 175z"/>
<path style="fill:#cf9c80; stroke:none;" d="M715 175L716 176L715 175z"/>
<path style="fill:#010101; stroke:none;" d="M11.3333 176.667L11.6667 177.333L11.3333 176.667z"/>
<path style="fill:#cf9c80; stroke:none;" d="M134 176L135 177L134 176M154 176L155 177L154 176M181 176L182 177L181 176z"/>
<path style="fill:#ff6701; stroke:none;" d="M241 178L244 176L241 178z"/>
<path style="fill:#cf9c80; stroke:none;" d="M338 176L339 177L338 176M464 176L465 177L464 176M621 176L622 177L621 176z"/>
<path style="fill:#6f7733; stroke:none;" d="M704 180L705 214L705 279L822 281L822 180L814 180L815 177L774 177.785L757 180.996L736 177.105L704 180z"/>
<path style="fill:#010101; stroke:none;" d="M715 176L715 177L737 177L715 176z"/>
<path style="fill:#cf9c80; stroke:none;" d="M737 176L738 177L737 176M155 177L156 178L155 177M339 177L340 178L339 177M463 177L464 178L463 177M622 177L623 178L622 177M646 177L647 178L646 177M676 177L677 178L676 177M712 177L713 178L712 177M739 177L740 178L739 177z"/>
<path style="fill:#010101; stroke:none;" d="M773 177L773 178L782 178L773 177z"/>
<path style="fill:#cf9c80; stroke:none;" d="M797 177L797 180L798 180L797 177z"/>
<path style="fill:#010101; stroke:none;" d="M798 177L798 178L814 178L798 177M10 178L11 179L10 178z"/>
<path style="fill:#cf9c80; stroke:none;" d="M109 178L110 179L109 178M131 178L132 179L131 178M178 178L179 179L178 178M218 178L219 179L218 178M238 178L239 179L238 178M244.333 178.667L244.667 179.333L244.333 178.667M340 178L341 179L340 178M441 178L442 179L441 178M461 178L462 179L461 178M645 178L646 179L645 178M678 178L679 179L678 178M710 178L711 179L710 178M741 178L742 179L741 178M769 178L770 179L769 178M814.333 178.667L814.667 179.333L814.333 178.667z"/>
<path style="fill:#010101; stroke:none;" d="M9.33333 179.667L9.66667 180.333L9.33333 179.667z"/>
<path style="fill:#cf9c80; stroke:none;" d="M112 179L113 180L112 179M129 179L130 180L129 179M158 179L159 180L158 179M176 179L177 180L176 179M220 179L221 180L220 179M236 179L237 180L236 179z"/>
<path style="fill:#6f7733; stroke:none;" d="M241 179L241 253C241 259.477 238.124 275.128 242.028 280.437C246.1 285.975 262.567 287.79 269 289.72C293.51 297.074 319.657 308.585 345 312L345 238C345 231.396 347.859 215.991 343.972 210.513C340.24 205.254 323.153 202.915 317 201.141C292.313 194.025 266.454 182.43 241 179z"/>
<path style="fill:#cf9c80; stroke:none;" d="M342 179L343 180L342 179M459 179L460 180L459 179M625 179L626 180L625 179M643 179L644 180L643 179M681.667 179.333L682.333 179.667L681.667 179.333M707.667 179.333L708.333 179.667L707.667 179.333M743.667 179.333L744.333 179.667L743.667 179.333M766 179L767 180L766 179M114.667 180.333L115.333 180.667L114.667 180.333M126 180L127 181L126 180M161 180L162 181L161 180M172.667 180.333L173.333 180.667L172.667 180.333z"/>
<path style="fill:#010101; stroke:none;" d="M189 180L190 181L189 180z"/>
<path style="fill:#cf9c80; stroke:none;" d="M222.667 180.333L223.333 180.667L222.667 180.333M233.667 180.333L234.333 180.667L233.667 180.333z"/>
<path style="fill:#010101; stroke:none;" d="M248 180L248 181L251 181L248 180z"/>
<path style="fill:#cf9c80; stroke:none;" d="M345.667 180.333L346.333 180.667L345.667 180.333M361.667 180.333L362.333 180.667L361.667 180.333z"/>
<path style="fill:#010101; stroke:none;" d="M444 180L395 194.421L346 208L346 209L389 197.421L445 181L444 180z"/>
<path style="fill:#6f7733; stroke:none;" d="M346 209L346 312L450 283L450 181L419 188.579L346 209z"/>
<path style="fill:#cf9c80; stroke:none;" d="M446 180L447 181L446 180M456.667 180.333L457.333 180.667L456.667 180.333M628 180L629 181L628 180M639.667 180.333L640.333 180.667L639.667 180.333M686.667 180.333L687.333 180.667L686.667 180.333M703 180L704 181L703 180M747 180L747 181L750 181L747 180M762.667 180.333L763.333 180.667L762.667 180.333z"/>
<path style="fill:#010101; stroke:none;" d="M8 181L9 182L8 181M190.333 181.667L190.667 182.333L190.333 181.667M251 181L251 182L254 182L251 181M7.33333 182.667L7.66667 183.333L7.33333 182.667M254 182L254 183L258 183L254 182M191.333 183.667L191.667 184.333L191.333 183.667M258 183L258 184L261 184L258 183M6.33333 184.667L6.66667 185.333L6.33333 184.667M261 184L261 185L264 185L261 184M192.333 185.667L192.667 186.333L192.333 185.667M264 185L264 186L268 186L264 185M5.33333 186.667L5.66667 187.333L5.33333 186.667M268 186L268 187L271 187L268 186M193.333 187.667L193.667 188.333L193.333 187.667M271 187L271 188L274 188L271 187M4 188L4 191L5 191L4 188M274 188L274 189L278 189L274 188M194 189L194 192L195 192L194 189M278 189L278 190L281 190L278 189M281 190L281 191L284 191L281 190M3 191L3 194L4 194L3 191M284 191L284 192L288 192L284 191M195 192L195 195L196 195L195 192M288 192L288 193L291 193L288 192M291 193L291 194L294 194L291 193M2 194L2 198L3 198L2 194M294 194L294 195L298 195L294 194M298 195L298 196L301 196L298 195M196 196L196 199L197 199L196 196M301 196L301 197L304 197L301 196M304 197L304 198L308 198L304 197M308 198L308 199L311 199L308 198M311 199L311 200L314 200L311 199z"/>
<path style="fill:#ff6701; stroke:none;" d="M198 200L198 203L199 203L198 200z"/>
<path style="fill:#010101; stroke:none;" d="M314 200L314 201L318 201L314 200M318 201L318 202L321 202L318 201M321 202L321 203L324 203L321 202M324 203L324 204L331 205L331 204L324 203z"/>
<path style="fill:#cf9c80; stroke:none;" d="M326 204L327 205L326 204z"/>
<path style="fill:#010101; stroke:none;" d="M331 205L331 206L334 206L331 205M334 206L334 207L337 207L334 206M337 207L337 208L341 208L337 207z"/>
<path style="fill:#fffefe; stroke:none;" d="M198 208C197.984 232.202 180.391 252.075 160 263.23C125.332 282.196 79.6692 283.815 44 266.244C23.5028 256.147 1.51033 236.593 1 212L0 212L0 313L342 313L342 312C317.577 308.393 292.723 297.363 269 290.424C261.068 288.104 246.568 286.488 240.61 280.57C236.024 276.016 233.201 268.57 230 263C219.885 245.401 211.309 223.318 198 208z"/>
<path style="fill:#010101; stroke:none;" d="M341 208L341 209L344 209L341 208M880 214L881 215L880 214M879 215L880 216L879 215M878.333 216.667L878.667 217.333L878.333 216.667M877 218L878 219L877 218M876 219L877 220L876 219M875 220L876 221L875 220M874 221L875 222L874 221M873 222L874 223L873 222M872.333 223.667L872.667 224.333L872.333 223.667M871 225L872 226L871 225M870 226L871 227L870 226M869 227L870 228L869 227M868 228L869 229L868 228M867 229L868 230L867 229M866.333 230.667L866.667 231.333L866.333 230.667M865 232L866 233L865 232M864 233L865 234L864 233M863 234L864 235L863 234M862 235L863 236L862 235M861 236L862 237L861 236M860 237L861 238L860 237M859.333 238.667L859.667 239.333L859.333 238.667M858 240L859 241L858 240M857 241L858 242L857 241M856 242L857 243L856 242M855 243L856 244L855 243M854 244L855 245L854 244M853.333 245.667L853.667 246.333L853.333 245.667M852 247L853 248L852 247M851 248L852 249L851 248M850 249L851 250L850 249M849 250L850 251L849 250M848 251L849 252L848 251M847.333 252.667L847.667 253.333L847.333 252.667M846 254L847 255L846 254M845 255L846 256L845 255M844 256L845 257L844 256M843 257L844 258L843 257M842 258L843 259L842 258M841.333 259.667L841.667 260.333L841.333 259.667M840 261L841 262L840 261M839 262L840 263L839 262M838 263L839 264L838 263M837 264L838 265L837 264M836 265L837 266L836 265M835.333 266.667L835.667 267.333L835.333 266.667M834 268L835 269L834 268M833 269L834 270L833 269M832 270L833 271L832 270M831 271L832 272L831 271M830 272L831 273L830 272M829 273L830 274L829 273M828.333 274.667L828.667 275.333L828.333 274.667M827 276L828 277L827 276M826 277L827 278L826 277M825 278L826 279L825 278M824 279L825 280L824 279z"/>
</svg>
